<?xml version="1.0" encoding="UTF-8"?>
<svg id="Capa_2" data-name="Capa 2" xmlns="http://www.w3.org/2000/svg" viewBox="0 0 255.86 256.02">
  <defs>
    <style>
      .cls-1 {
        fill: #111e15;
      }
    </style>
  </defs>
  <g id="Capa_1-2" data-name="Capa 1">
    <g>
      <path class="cls-1" d="M0,128.09C0,90.61,0,53.12,0,15.63,0,4.82,4.73,0,15.38,0c55.15-.01,110.3,0,165.45,0,10.57,0,15.32,4.64,15.34,15.11.04,24.99.01,49.98.01,74.98,0,.83.31,1.92-.1,2.45-.26.34-.53.66-.81.98-2.02,2.29-5.81,1.98-7.27-.7,0-.02-.02-.03-.03-.05-.62-1.18-.18-2.94-.18-4.43,0-23.83,0-47.65,0-71.48,0-7.42-.69-8.14-7.88-8.14-54.48-.01-108.97-.01-163.45,0-7.18,0-7.78.57-7.78,7.62-.01,74.48-.01,148.95,0,223.43,0,6.87.67,7.58,7.34,7.58,54.82.02,109.63.02,164.45,0,6.31,0,7.29-.99,7.31-7.23.04-12.5.03-24.99,0-37.49,0-3.03.28-6.13,4.05-6.21,4.13-.09,4.38,3.17,4.37,6.38-.04,13,.04,25.99-.04,38.99-.06,9.31-4.97,14.21-14.19,14.21-55.82.02-111.63.02-167.45,0-9.45,0-14.5-5.03-14.51-14.45-.02-37.82,0-75.64-.01-113.46Z"/>
      <path class="cls-1" d="M213.53,80.84c3.11-5.29,6.03-10.71,9.45-15.8,1.21-1.8,3.69-2.72,5.54-4.11,1.11-.83,2.38-1.61,3.14-2.71,4.88-7.01,11.52-8.97,18.01-5.17,6.13,3.59,7.89,10.67,4.42,17.83-.36.75-1.25,1.61-1.08,2.18,3.1,10.5-6.46,16.16-9.23,24.39-.11.32-.23.63-.3.83,2.34,1.91,5.02,3.48,6.86,5.74,3.46,4.26,3.79,9.21,1.1,14.02-5.36,9.58-10.91,19.06-16.41,28.56-1.44,2.49-3.32,4.52-6.41,2.61-2.96-1.82-2.36-4.39-.88-6.96,4.91-8.5,9.8-17.01,14.68-25.52,3.51-6.13,3.25-7-3.36-10.69-.94,1.46-1.95,2.92-2.84,4.45-8.06,13.98-15.8,28.15-24.25,41.89-6.43,10.44-13.75,20.34-20.72,30.44-3.02,4.38-6.29,8.58-9.19,13.03-2.89,4.45-6.83,6.48-12.05,6.81-1.67.11-3.64,1.08-4.81,2.3-2.53,2.63-4.57,5.72-6.92,8.53-5.76,6.91-12.68,5.85-16.22-2.41-.57-1.32-1.15-2.64-1.92-4.42-1.18,1.36-1.83,2.8-2.87,3.18-2.8,1-6.05,2.62-8.58,1.95-2.29-.61-4.9-3.63-5.55-6.07-1.3-4.89-1.35-10.11-2.81-15.3-2.73,8.09-5.46,16.17-8.19,24.26-.48,1.42-.53,3.27-1.48,4.16-1.36,1.28-3.74,2.9-5.01,2.46-1.38-.48-3-3.34-2.75-4.86.68-4.05,2.28-7.96,3.58-11.9,2.09-6.31,4.17-12.61,6.37-18.88,1.77-5.02,5.27-7.45,9.73-6.61,4.76.89,6.92,4.22,7.37,8.82.22,2.32.3,4.65.51,6.97.21,2.32.49,4.63.8,7.48,3.41-3.45,7.09-7.52,11.78-4.43,3.41,2.25,5.57,6.41,8.51,9.99,2.19-2.69,4.9-5.81,7.31-9.14.58-.8.53-2.46.13-3.47-1.7-4.35-1.18-8.34.85-12.48,2.77-5.66,4.99-11.58,7.72-17.26,5.46-11.35,10.74-22.81,16.76-33.87,7.78-14.3,16.21-28.25,24.42-42.45-2.16-2.67-8.02-3.84-4.52-8.31,1.31-1.67,5.51-1.09,8.39-1.53.31.49.62.98.93,1.48ZM216.6,93.08c-11.44,19.83-22.69,39.34-34.06,59.05,5.18,2.96,9.76,5.57,14.71,8.4,11.46-19.87,22.7-39.35,34.02-58.98-5.18-2.99-9.77-5.63-14.68-8.47ZM235.6,94.1c2.9-5.04,5.61-9.75,8.46-14.69-5-2.88-9.71-5.6-14.65-8.45-2.88,5-5.59,9.71-8.43,14.64,4.88,2.84,9.46,5.5,14.63,8.5ZM172.91,176.06c3.04,1.74,5.71,3.27,8.44,4.83,3.77-4.59,7.22-8.78,10.87-13.23-4.51-2.62-8.63-5-13.21-7.66-2.04,5.37-3.96,10.42-6.1,16.06ZM168.52,183.61c-.4,3.29-1,5.88-.83,8.41.05.73,2.79,2.17,3.5,1.79,2.09-1.12,3.78-2.99,6.14-5-3.25-1.92-5.49-3.23-8.81-5.19ZM237.57,65.54c2.41,1.44,4.62,2.76,6.92,4.14,2.22-3.08,4.84-6.35.71-9-3.96-2.54-5.68,1.15-7.63,4.86Z"/>
      <path class="cls-1" d="M47.24,34.12v8.65h6.09c31.98,0,63.96,0,95.94,0,1.66,0,3.6-.41,4.92.28,1.51.79,3.42,2.64,3.4,3.99-.03,1.36-2.04,2.97-3.54,3.9-.98.6-2.6.21-3.93.21-34.64,0-69.29.01-103.93,0-7.15,0-7.89-.78-7.92-8.12-.01-3-.01-6,0-8.99.02-7.62.73-8.36,8.2-8.36,34.48-.01,68.95,0,103.43,0,.67,0,1.33.02,2,0,3.13-.05,5.99.69,5.86,4.43-.12,3.37-2.8,4.03-5.77,4.01-10.49-.06-20.99-.02-31.48-.02-22.48,0-44.97,0-67.45,0h-5.8Z"/>
      <path class="cls-1" d="M25.79,200.24c.05,17.19,11.29,29.21,25.62,29.91,15.51.76,28.06-9.85,29.55-24.98.03-.33.04-.67.04-1-.03-3.26,1.13-5.86,4.77-5.53,3.74.34,4,3.37,3.75,6.41-.95,11.45-6,20.63-15.36,27.32-14.8,10.58-35.04,8.3-47.61-5.28-12.19-13.16-12.67-33.33-1.14-47.53,11.19-13.78,31.76-17.18,46.9-7.71,2.66,1.66,6.14,3.35,3.73,7.28-2.36,3.85-5.38,1.71-8.17.08-9.39-5.49-18.94-5.86-28.39-.36-9.09,5.28-13.51,13.43-13.68,21.39Z"/>
      <path class="cls-1" d="M76.81,123.91c-12.8,0-25.61,0-38.41,0-1.33,0-2.98.45-3.92-.16-.02-.01-.03-.02-.05-.03-2.94-1.94-2.87-6.36.03-8.34.08-.05.16-.11.24-.16.83-.53,2.27-.13,3.43-.13,25.77,0,51.54,0,77.31,0,1,0,3.8.18,4.63.34,2.49.48,3.11,2.32,3.38,3.98.5,3.08-2.21,4.45-5.25,4.49-2.33.03-4.66.02-6.98.02-11.47,0-22.95,0-34.42,0Z"/>
      <path class="cls-1" d="M119.38,98.1c-15.17,0-30.33-.03-45.5.02-3.08.01-5.53-.93-5.5-4.28.03-3.42,2.68-4.21,5.64-4.17,1.33.02,2.67,0,4,0,23.17,0,46.33,0,69.5,0,5.67,0,11.33.02,17,0,3.06-.01,6.04.47,5.97,4.3-.07,3.78-3.01,4.17-6.11,4.16-15-.05-30-.02-45-.02Z"/>
      <path class="cls-1" d="M97.9,68.23c-13.49,0-26.99.14-40.48-.14-2.03-.04-5.32-1.58-5.79-3.12-1.18-3.83,1.69-5.14,5.2-5.13,10.5.01,20.99,0,31.49,0,16.83,0,33.66-.11,50.48.14,2.04.03,5.34,1.57,5.81,3.1,1.19,3.86-1.73,5.15-5.23,5.15-13.83,0-27.66,0-41.48,0Z"/>
      <path class="cls-1" d="M52.06,206.9c5.06-5.24,9.33-9.67,13.61-14.08,2.09-2.15,4.44-4.12,7.22-1.36,2.63,2.61,1.24,5.08-1.01,7.3-4.26,4.2-8.42,8.52-12.71,12.69-4.66,4.53-8.87,4.63-13.54.32-2.57-2.37-4.97-4.91-7.43-7.39-2.04-2.06-3.43-4.4-1.01-6.94,2.69-2.82,5.14-1.2,7.24,1.02,2.4,2.53,4.68,5.16,7.64,8.45Z"/>
      <path class="cls-1" d="M55.54,145.05c-6.64,0-13.28-.03-19.92.01-2.97.02-5.48-.68-5.56-4.16-.08-3.55,2.57-4.33,5.44-4.34,13.28-.05,26.56-.04,39.83-.01,2.87,0,5.59.77,5.58,4.24-.01,3.78-2.84,4.31-5.95,4.28-6.47-.06-12.95-.02-19.42-.02Z"/>
      <path class="cls-1" d="M151.4,123.9c-4.48,0-9.02.45-13.4-.19-2.07-.3-5.14-2.46-5.46-4.19-.55-3,2.25-4.42,5.28-4.42,9.12-.01,18.24-.02,27.36,0,3.04,0,5.72,1.42,5.16,4.52-.3,1.67-3.13,3.83-5.04,4.08-4.56.6-9.26.19-13.9.2Z"/>
      <path class="cls-1" d="M108.82,145.05c-4.49,0-8.99-.03-13.48.01-3,.03-5.41-.74-5.49-4.25-.08-3.32,2.3-4.21,5.02-4.23,9.32-.07,18.65-.24,27.96.17.39.02.78.16,1.16.38,2.73,1.6,2.72,5.74-.03,7.3-.38.22-.77.36-1.16.41-4.59.58-9.3.19-13.96.19Z"/>
    </g>
  </g>
</svg>