<?xml version="1.0" encoding="UTF-8"?>
<svg id="Capa_2" data-name="Capa 2" xmlns="http://www.w3.org/2000/svg" viewBox="0 0 90.64 45.23">
  <defs>
    <style>
      .cls-1 {
        fill: #0c261b;
      }
    </style>
  </defs>
  <g id="Capa_1-2" data-name="Capa 1">
    <path class="cls-1" d="M72.31,0h-2.33l-13.05,31.06L44.29,0h-2.33l-14.32,34.09c.01-.2.02-.4.02-.6,0-7.11-6.44-10.65-12.67-14.07h0c-5.61-3.08-10.9-5.99-10.9-11.29C4.08,3.54,8.11.46,14.11.46c7.35,0,9.4,4.75,10.42,9.42h.42V3.66C22.14,1.46,17.82.1,13.66.1,6.83.1,2.24,3.76,2.24,9.22c0,5.91,5.47,8.87,11.26,12,5.86,3.17,11.93,6.46,11.93,13.1,0,2.97-1.26,5.68-3.54,7.61-2.24,1.89-5.32,2.94-8.67,2.94-9.22,0-12.01-7.86-12.79-11.34h-.42v6.22l.19.16c2.8,2.25,6.64,5.32,13.15,5.32,7.09,0,12.51-3.61,13.93-8.91l6.9-16.39.02-.02c1.15-1.46,3.05-3.84,4.13-5.18l-2.71,1.8L42.46.26l-.13,13.78,1.16-1.93.14.4c.03.09,3.08,8.74,4.98,10.23l-.23.33-2.88-1.79v8.53l4.39,2.78,6.02,2.25,3.2-7.59c2.66-3.96,4.6-6.87,5.58-8.35-.44.39-.95.86-1.42,1.28-.44.4-.88.8-1.26,1.14l-.66.59L70.37.5l.09.75c.04.29.73,6.16.01,8.95l1.39-1.49.77,13.47,8.24,16.11,7.06,6.48.13-.32.27.65h2.3L72.31,0Z"/>
  </g>
</svg>