<?xml version="1.0" encoding="UTF-8"?>
<svg id="Capa_2" data-name="Capa 2" xmlns="http://www.w3.org/2000/svg" viewBox="0 0 97.29 17.11">
  <defs>
    <style>
      .cls-1 {
        fill: #0c261b;
      }
    </style>
  </defs>
  <g id="Capa_1-2" data-name="Capa 1">
    <g>
      <path class="cls-1" d="M22.56,1.5h-.73l-4.07,9.69L13.82,1.5h-.73l-4.47,10.63c0-.06,0-.12,0-.19,0-2.22-2.01-3.32-3.95-4.39h0c-1.75-.96-3.4-1.87-3.4-3.52,0-1.43,1.26-2.39,3.13-2.39,2.29,0,2.93,1.48,3.25,2.94h.13v-1.94c-.88-.69-2.23-1.11-3.52-1.11C2.13,1.53.7,2.67.7,4.37c0,1.84,1.71,2.77,3.51,3.74,1.83.99,3.72,2.01,3.72,4.09,0,.93-.39,1.77-1.1,2.37-.7.59-1.66.92-2.71.92-2.88,0-3.75-2.45-3.99-3.54h-.13v1.94l.06.05c.87.7,2.07,1.66,4.1,1.66,2.21,0,3.9-1.13,4.35-2.78l2.15-5.11h0c.36-.46.95-1.2,1.29-1.62l-.85.56,2.14-5.08-.04,4.3.36-.6.04.13s.96,2.73,1.55,3.19l-.07.1-.9-.56v2.66l1.37.87,1.88.7,1-2.37c.83-1.24,1.44-2.14,1.74-2.61-.14.12-.3.27-.44.4-.14.12-.27.25-.39.35l-.21.19,2.81-6.68.03.23c.01.09.23,1.92,0,2.79l.43-.46.24,4.2,2.57,5.02,2.2,2.02.04-.1.08.2h.72L22.56,1.5Z"/>
      <rect class="cls-1" x="33.06" width=".39" height="17.11"/>
      <g>
        <path class="cls-1" d="M43.39,7.5c-.16-.4-.37-.77-.63-1.1-.26-.33-.54-.66-.85-.98-.31-.32-.62-.63-.93-.92-.31-.29-.59-.57-.85-.85-.26-.27-.46-.55-.63-.83-.16-.28-.24-.55-.24-.8,0-.32.13-.59.38-.81.25-.23.63-.34,1.15-.34.6,0,1.13.25,1.6.74.47.49.75,1.04.84,1.64v-1.86c-.2-.19-.51-.36-.92-.49-.41-.13-.82-.2-1.23-.2-.78,0-1.44.18-1.97.55-.54.37-.81.81-.81,1.31,0,.27.08.55.24.85.16.29.37.58.63.85s.54.56.85.85c.31.29.62.6.93.91.31.32.59.64.85.96.26.32.46.68.63,1.07s.24.78.24,1.17c0,.52-.18.96-.54,1.32-.36.36-.81.53-1.36.53-.31,0-.59-.05-.85-.14-.26-.09-.48-.22-.65-.37s-.33-.33-.47-.54c-.14-.21-.24-.42-.32-.64-.08-.21-.14-.44-.19-.68v1.86c.21.2.51.36.92.49.4.13.84.2,1.3.2.54,0,1.04-.1,1.51-.3.47-.2.86-.5,1.16-.89.3-.39.46-.84.46-1.34,0-.4-.08-.8-.24-1.21Z"/>
        <path class="cls-1" d="M44.4,11.07h2.13c-.38-.24-.58-.83-.58-1.78V2.65c0-.94.19-1.54.58-1.78h-2.13c.39.24.58.83.58,1.78v6.64c0,.94-.19,1.54-.58,1.78Z"/>
        <path class="cls-1" d="M58.53,10.17c-.16-.56-.24-1.28-.24-2.16,0-.26-.02-.5-.05-.74-.03-.24-.09-.49-.17-.74s-.19-.48-.33-.68c-.13-.2-.31-.37-.53-.52-.22-.14-.47-.24-.75-.29.57-.1,1.03-.32,1.39-.66.36-.33.54-.8.54-1.39,0-.64-.21-1.15-.64-1.54-.43-.39-1.1-.58-2.02-.58h-2.72c.38.24.58.83.58,1.78v2.19c-.09-.02-.3-.06-.62-.13-.32-.07-.59-.12-.81-.15-.22-.03-.44-.05-.66-.05-.65,0-1.21.14-1.69.42-.48.28-.81.67-.99,1.17V1.04h1.56c.26,0,.5.05.72.15.22.1.41.23.55.38.14.15.26.3.34.43.09.14.15.26.19.39-.11-.63-.2-1.14-.28-1.52h-4.63c.39.24.58.83.58,1.78v6.64c0,.94-.19,1.54-.58,1.78h4.86c.06-.27.15-.78.28-1.52-.04.12-.11.25-.19.39-.09.14-.2.28-.34.43-.14.15-.32.28-.54.38-.22.1-.46.15-.72.15h-1.79v-4.28c.05-.33.17-.61.37-.83.2-.22.47-.38.8-.49.33-.11.66-.18,1-.22.33-.04.72-.06,1.16-.06.18,0,.66.02,1.43.07v4.21c0,.94-.19,1.54-.58,1.78h2.13c-.39-.24-.58-.85-.58-1.84,0-2.73,0-4.11,0-4.13h.61c.29,0,.56.05.8.15.24.1.47.25.68.46s.37.49.49.86c.12.37.18.8.18,1.3,0,.59.05,1.1.15,1.53.1.43.24.76.42,1,.18.23.37.41.57.51.2.11.42.16.66.16-.23-.04-.43-.34-.59-.9ZM55.47,4.94h-.91V1.05h.91c1.33,0,2,.65,2,1.94s-.67,1.95-2,1.95Z"/>
        <path class="cls-1" d="M59.26,11.07h1.52c-.46-.28-.59-.88-.39-1.78l.43-1.95h2.45l.43,1.95c.09.39.13.71.13.97s-.03.44-.08.55c-.05.11-.13.2-.24.26h2.13c-.44-.28-.76-.87-.97-1.78l-1.86-8.42h-.97l.12.56-1.74,7.87c-.2.91-.53,1.5-.97,1.78ZM62.04,1.77l1.19,5.4h-2.38l1.2-5.4Z"/>
        <path class="cls-1" d="M75.33,1.35v7.94c0,.94-.19,1.54-.58,1.78h2.13c-.39-.24-.58-.83-.58-1.78V2.65c0-.94.19-1.54.58-1.78h-1.56l-2.14,7.64-2.23-7.64h-1.27c.39.24.58.83.58,1.78v6.64c0,.94-.19,1.54-.58,1.78h1.31c-.38-.24-.58-.83-.58-1.78V2.33l2.55,8.74.47-1.69-.19-.65,2.08-7.38Z"/>
        <path class="cls-1" d="M83.75,3.32c-.3-.81-.69-1.45-1.19-1.92-.5-.47-1.03-.7-1.6-.7s-1.1.23-1.6.7c-.5.47-.9,1.11-1.2,1.92-.3.81-.45,1.7-.45,2.65s.15,1.84.45,2.65c.3.81.7,1.45,1.2,1.92s1.03.7,1.6.7,1.1-.23,1.6-.7c.5-.47.9-1.11,1.19-1.92.3-.81.44-1.7.44-2.65s-.15-1.84-.44-2.65ZM82.96,8.44c-.18.77-.44,1.4-.79,1.89-.35.49-.75.74-1.2.74s-.85-.25-1.2-.74c-.35-.49-.62-1.12-.79-1.89-.18-.77-.27-1.59-.27-2.47s.09-1.7.27-2.47c.18-.77.44-1.4.79-1.89.35-.49.75-.74,1.2-.74s.85.25,1.2.74c.35.49.62,1.12.79,1.89.18.77.27,1.59.27,2.47s-.09,1.7-.27,2.47Z"/>
        <path class="cls-1" d="M90.82.87h-1.31c.38.24.58.83.58,1.78v7.13l-3.96-8.91h-1.12c.39.24.58.83.58,1.78v6.64c0,.94-.19,1.54-.58,1.78h1.31c-.38-.24-.58-.83-.58-1.78V2.21l3.92,8.86h1l-.43-.95V2.65c0-.94.19-1.54.58-1.78Z"/>
        <path class="cls-1" d="M97.01.87h-5.53c-.08.37-.17.88-.28,1.53.04-.12.11-.25.19-.39.09-.14.2-.28.34-.43.14-.15.32-.28.55-.38.22-.1.46-.15.72-.15h.76v8.24c0,.94-.19,1.54-.58,1.78h2.13c-.39-.24-.58-.83-.58-1.78V1.05h.77c.26,0,.5.05.72.15.22.1.41.23.55.38.14.15.26.3.34.43.09.14.15.26.19.39-.11-.65-.21-1.16-.28-1.53Z"/>
        <path class="cls-1" d="M40.09,16.33c-1.05,0-1.63-.73-1.63-1.72s.52-1.9,1.72-1.9c.7,0,.85.33.94.78h.08v-.55c-.24-.19-.64-.31-1.06-.31-1.11,0-1.92.77-1.92,1.97,0,1.05.62,1.81,1.83,1.81.49,0,.88-.13,1.23-.41v-.57h-.08c-.13.66-.52.9-1.12.9Z"/>
        <path class="cls-1" d="M43.52,12.62c-1.16,0-1.89.82-1.89,1.91s.75,1.85,1.9,1.85,1.89-.73,1.89-1.84-.74-1.92-1.9-1.92ZM43.53,16.29c-1.01,0-1.65-.7-1.65-1.76s.63-1.82,1.64-1.82,1.65.78,1.65,1.83-.64,1.76-1.64,1.76Z"/>
        <polygon class="cls-1" points="48.46 15.96 46.01 12.65 45.92 12.65 45.92 16.36 46.02 16.36 46.02 13.07 48.46 16.36 48.55 16.36 48.55 12.65 48.46 12.65 48.46 15.96"/>
        <path class="cls-1" d="M50.33,12.65h-1.36v3.71h1.36c.91,0,1.7-.62,1.7-1.91s-.82-1.8-1.7-1.8ZM50.3,16.28h-1.11v-3.55h1.1c.83,0,1.49.47,1.49,1.71s-.64,1.84-1.48,1.84Z"/>
        <path class="cls-1" d="M54.28,12.62c-1.16,0-1.89.82-1.89,1.91s.75,1.85,1.9,1.85,1.89-.73,1.89-1.84-.74-1.92-1.9-1.92ZM54.3,16.29c-1.01,0-1.65-.7-1.65-1.76s.63-1.82,1.64-1.82,1.65.78,1.65,1.83-.64,1.76-1.64,1.76Z"/>
        <polygon class="cls-1" points="58.31 15.91 56.93 12.65 56.69 12.65 56.69 12.66 56.69 16.36 56.77 16.36 56.77 12.85 58.18 16.2 58.27 16.2 59.67 12.88 59.67 16.36 59.89 16.36 59.89 12.65 59.68 12.65 58.31 15.91"/>
        <rect class="cls-1" x="60.47" y="12.65" width=".22" height="3.71"/>
        <polygon class="cls-1" points="63.82 15.96 61.36 12.65 61.27 12.65 61.27 16.36 61.37 16.36 61.37 13.07 63.81 16.36 63.9 16.36 63.9 12.65 63.82 12.65 63.82 15.96"/>
        <rect class="cls-1" x="64.33" y="12.65" width=".22" height="3.71"/>
        <path class="cls-1" d="M66.94,12.62c-1.16,0-1.89.82-1.89,1.91s.75,1.85,1.9,1.85,1.89-.73,1.89-1.84-.74-1.92-1.9-1.92ZM66.95,16.29c-1.01,0-1.65-.7-1.65-1.76s.63-1.82,1.64-1.82,1.65.78,1.65,1.83-.64,1.76-1.64,1.76Z"/>
        <path class="cls-1" d="M72.5,16.33c-1.05,0-1.63-.73-1.63-1.72s.52-1.9,1.72-1.9c.7,0,.85.33.94.78h.08v-.55c-.24-.19-.64-.31-1.06-.31-1.11,0-1.92.77-1.92,1.97,0,1.05.62,1.81,1.83,1.81.49,0,.88-.13,1.23-.41v-.57h-.08c-.13.66-.52.9-1.12.9Z"/>
        <path class="cls-1" d="M75.46,12.65l-1.49,3.71h.08l.63-1.56h1.48l.63,1.56h.24l-1.49-3.71h-.08ZM74.72,14.72l.71-1.76.71,1.76h-1.42Z"/>
        <polygon class="cls-1" points="79.09 15.91 77.71 12.65 77.46 12.65 77.47 12.66 77.47 16.36 77.55 16.36 77.55 12.85 78.96 16.2 79.04 16.2 80.44 12.88 80.44 16.36 80.66 16.36 80.66 12.65 80.45 12.65 79.09 15.91"/>
        <path class="cls-1" d="M82.53,12.65h-1.28v3.71h.23v-1.57h1.12c.62,0,1.03-.51,1.03-1.12,0-.72-.55-1.01-1.09-1.01ZM82.59,14.71h-1.11v-1.98h1.06c.49,0,.83.33.83.94s-.32,1.03-.78,1.03Z"/>
        <polygon class="cls-1" points="84.02 16.36 86.11 16.36 86.11 16.28 84.23 16.28 84.23 14.05 85.68 14.05 85.68 13.97 84.23 13.97 84.23 12.73 86.11 12.73 86.11 12.65 84.02 12.65 84.02 16.36"/>
        <path class="cls-1" d="M86.84,13.32c0-.37.32-.61.81-.61.56,0,.75.33.84.78h.08v-.55c-.24-.19-.61-.31-.96-.31-.57,0-.97.31-.97.78,0,1.02,1.92,1.02,1.92,2.08,0,.5-.43.85-.99.85-.65,0-.94-.49-1.04-.94h-.08v.55c.24.19.56.47,1.13.47.69,0,1.21-.41,1.21-1,0-1.14-1.95-1.2-1.95-2.1Z"/>
        <polygon class="cls-1" points="88.87 12.73 90.18 12.73 90.18 16.36 90.4 16.36 90.4 12.73 91.71 12.73 91.71 12.65 88.87 12.65 88.87 12.73"/>
        <path class="cls-1" d="M93.25,15h.18c.62,0,1.03-.6,1.03-1.26,0-.76-.55-1.09-1.09-1.09h-1.28v3.71h.23v-1.36h.65l1.08,1.1c.1.1.32.23.46.26h.29v-.03c-.15-.01-.36-.14-.46-.24l-1.07-1.09ZM92.31,14.92v-2.19h1.06c.49,0,.83.35.83,1.01s-.32,1.18-.78,1.18h-1.11Z"/>
        <polygon class="cls-1" points="95.2 16.36 97.29 16.36 97.29 16.28 95.42 16.28 95.42 14.05 96.86 14.05 96.86 13.97 95.42 13.97 95.42 12.73 97.29 12.73 97.29 12.65 95.2 12.65 95.2 16.36"/>
      </g>
    </g>
  </g>
</svg>