<?xml version="1.0" encoding="UTF-8"?>
<svg id="Capa_2" data-name="Capa 2" xmlns="http://www.w3.org/2000/svg" viewBox="0 0 228.82 195">
  <defs>
    <style>
      .cls-1 {
        fill: #111e15;
      }
    </style>
  </defs>
  <g id="Capa_1-2" data-name="Capa 1">
    <g>
      <path class="cls-1" d="M225.3,189H3.51c-1.66,0-3,1.34-3,3s1.34,3,3,3h221.79c1.66,0,3-1.34,3-3s-1.34-3-3-3Z"/>
      <path class="cls-1" d="M9.51,124.12h84.73l7.38-41.61H16.1l-6.59,41.61ZM21.23,88.51h73.24l-5.26,29.61H16.54l4.69-29.61Z"/>
      <path class="cls-1" d="M46.26,184.12h37.33l9.78-55.12h-18.4v-3.48H21.4v3.48h-12.67L0,184.12h46.26ZM46.26,178.12v-17.03h3.85v17.03h-3.85ZM86.21,135l-7.65,43.12h-22.46v-17.03h18.86v-26.09h11.24ZM68.97,155.09H27.4v-23.57h41.57v23.57ZM40.26,178.12H7.03l6.83-43.12h7.55v26.09h18.86v17.03Z"/>
      <path class="cls-1" d="M228.82,184.12l-8.9-55.12h-121l-8.82,55.12h138.72ZM104.03,135h110.78l6.96,43.12h-124.64l6.9-43.12Z"/>
      <path class="cls-1" d="M110.69,31.39H24.2l-7.33,46.24h85.62l8.2-46.24ZM23.9,71.63l5.43-34.24h74.21l-6.08,34.24H23.9Z"/>
      <path class="cls-1" d="M3.51,26.52h128.19c-.06.79-.1,1.57-.1,2.36,0,.84.05,1.68.12,2.51h-17.2l-7.4,46.24h47.68l2.74,4.88h-51.2l-6.65,41.61h119.44l-6.72-41.61h-49.02l2.74-4.88h45.48l-7.46-46.24h-14.93c.07-.83.12-1.66.12-2.51,0-.79-.04-1.58-.11-2.36h36.04c1.66,0,3-1.34,3-3s-1.34-3-3-3h-37.18c-3.63-12.02-14.89-20.52-27.64-20.52s-24,8.49-27.64,20.52H3.51c-1.66,0-3,1.34-3,3s1.34,3,3,3ZM212.09,118.12h-105.36l4.73-29.61h95.85l4.78,29.61ZM114.16,71.63l5.48-34.24h13.24c.04.12.09.24.13.36.15.48.32.95.5,1.42.07.19.14.39.22.58.26.64.54,1.27.84,1.89l.12.22c.42.83.85,1.59,1.31,2.33l15.42,27.43h-37.27ZM204.58,71.63h-35.06l15.41-27.42c.52-.83,1-1.68,1.38-2.46l.06-.11c.31-.62.58-1.26.85-1.9.08-.19.14-.38.22-.56.18-.48.35-.96.51-1.44.04-.12.09-.23.12-.35h10.99l5.52,34.24ZM160.47,6c10.75,0,20.16,7.61,22.38,18.12,0,0,0,.02,0,.02,0,0,0,0,0,0,.33,1.53.49,3.13.49,4.73s-.18,3.3-.53,4.88c-.39,1.82-1.01,3.58-1.78,5.14l-.05.1c-.35.7-.74,1.4-1.17,2.08l-19.34,34.38-19.28-34.27-.08-.14c-.4-.63-.78-1.3-1.15-2.05l-.08-.15c-.78-1.61-1.38-3.33-1.76-5.11-.34-1.57-.52-3.2-.52-4.87s.16-3.19.49-4.74c2.21-10.51,11.63-18.14,22.38-18.14Z"/>
      <path class="cls-1" d="M215.8,33.76c-.35-1.62-1.94-2.65-3.56-2.31-1.62.35-2.65,1.94-2.31,3.56l12.43,58.02c.3,1.41,1.55,2.37,2.93,2.37.21,0,.42-.02.63-.07,1.62-.35,2.65-1.94,2.3-3.56l-12.43-58.02Z"/>
      <path class="cls-1" d="M3.03,105.01c.16.03.33.04.49.04,1.44,0,2.72-1.05,2.96-2.52l11.04-67.66c.27-1.64-.84-3.18-2.48-3.44-1.62-.27-3.18.84-3.44,2.48L.55,101.57c-.27,1.64.84,3.18,2.48,3.44Z"/>
      <path class="cls-1" d="M32.57,150.96h31.23c1.66,0,3-1.34,3-3s-1.34-3-3-3h-31.23c-1.66,0-3,1.34-3,3s1.34,3,3,3Z"/>
      <path class="cls-1" d="M39.16,140.52h18.05c1.66,0,3-1.34,3-3s-1.34-3-3-3h-18.05c-1.66,0-3,1.34-3,3s1.34,3,3,3Z"/>
      <path class="cls-1" d="M168.78,156.05c-4.73,0-8.58,3.84-8.58,8.57s3.85,8.58,8.58,8.58,8.57-3.85,8.57-8.58-3.84-8.57-8.57-8.57ZM168.78,167.2c-1.42,0-2.58-1.16-2.58-2.58s1.16-2.57,2.58-2.57,2.57,1.15,2.57,2.57-1.15,2.58-2.57,2.58Z"/>
      <path class="cls-1" d="M150.39,154.56c4.73,0,8.57-3.84,8.57-8.57s-3.84-8.58-8.57-8.58-8.57,3.85-8.57,8.58,3.84,8.57,8.57,8.57ZM150.39,143.41c1.42,0,2.57,1.16,2.57,2.58s-1.15,2.57-2.57,2.57-2.57-1.15-2.57-2.57,1.15-2.58,2.57-2.58Z"/>
      <path class="cls-1" d="M143.38,171.75c.58.57,1.34.86,2.1.86s1.56-.3,2.14-.9l26.67-27.21c1.16-1.18,1.14-3.08-.04-4.24-1.18-1.16-3.08-1.14-4.24.04l-26.67,27.21c-1.16,1.18-1.14,3.08.04,4.24Z"/>
      <path class="cls-1" d="M157.52,36.6v10.27c-2.52-.55-4.3-1.59-4.31-1.6-1.42-.86-3.26-.4-4.12,1.02-.86,1.42-.4,3.26,1.02,4.12.15.09,3.2,1.91,7.42,2.56v2.36c0,1.66,1.34,3,3,3s3-1.34,3-3v-2.51c5.05-1.27,8.79-5.59,8.79-10.73s-3.74-9.47-8.79-10.73v-10.37c2.58.47,3.62,1.42,3.63,1.43l-.08-.08c1.47,1.42,3.73,1.2,4.73-.1.8-1.04.74-2.7-.26-3.9-.56-.51-1.24-1.09-2.09-1.56-1.29-.73-3.23-1.5-5.94-1.85v-1.47c0-1.66-1.34-3-3-3s-3,1.34-3,3v1.64c-5.09,1.24-8.87,5.58-8.87,10.75s3.78,9.51,8.87,10.75ZM166.31,42.08c0,1.84-1.12,3.46-2.79,4.36v-8.72c1.67.9,2.79,2.52,2.79,4.36ZM157.52,21.45v8.8c-1.71-.89-2.87-2.53-2.87-4.4s1.15-3.51,2.87-4.4Z"/>
    </g>
  </g>
</svg>