<?xml version="1.0" encoding="UTF-8"?>
<svg id="Capa_2" data-name="Capa 2" xmlns="http://www.w3.org/2000/svg" viewBox="0 0 256.18 255.97">
  <defs>
    <style>
      .cls-1 {
        fill: #111e15;
      }
    </style>
  </defs>
  <g id="Capa_1-2" data-name="Capa 1">
    <g>
      <path class="cls-1" d="M196.35,33.47c3.97-11.87,13.28-4.84,19.36-7.84q1.59-8.52,10.9-8.52c7.67,0,15.34.08,23.01-.03,4.67-.06,6.58,2.1,6.56,6.7-.08,19.84-.01,39.67-.05,59.51,0,5.22-1.63,6.86-6.83,6.87-13.5.04-27.01-.09-40.51.13-9,.53-12.92,18.74-37.56,18.82-1.63-.01-3.57,1.53-4.88,2.83-15.16,15.02-30.21,30.14-45.31,45.22-5.08,5.07-6.81,5.06-11.9-.02-30.19-30.16-60.38-60.33-90.55-90.51-5.07-5.07-5.08-6.53-.14-11.48C35.66,37.95,52.87,20.74,70.1,3.55c4.77-4.77,6.22-4.74,11.1.11,3.79,3.76,7.73,7.38,11.25,11.37,2.43,2.76,4.65,3.54,8.18,2.03,5.8-2.48,11.8-4.5,17.75-6.62,10.84-3.87,21.71-3.7,32.09,1.19,15.46,7.19,29.52,16.52,45.88,21.84ZM104.13,26.37c9.76,9.77,17.67,20.92,32.37,23.27,6.17.98,12.06,3.66,18.08,5.57,1.27.4,2.98.45,3.69,1.32,5.14,5.9,3.61,7.05-2.9,9.4-14.6-4.01-29.47-9.49-44.17-13.77-5.18-1.59-9.69.33-11.91,4.62-3.86,7,2.36,13.57,9.33,15.51,11.61,4.05,23.31,7.86,34.88,12.01,2.37.85,4.76,2.41,6.44,4.28,13.17,14.68,34.93,13.31,45.85-3.08.71-1.06,1.4-2.4,1.41-3.61.1-12.81.06-25.62.06-38.98-11.24-.36-20-6.27-29.18-11.28-7.15-3.9-14.51-7.43-21.87-10.91-14.28-7.28-28.16.98-42.08,5.65ZM94.1,31.13c-12.39,7.8-24.8,7.71-36.78.17-3.94,3.8-7.62,7.36-10.35,10,5.63,18.73,5.68,20.03.18,38.3,16.35,16.35,33.16,33.16,50.07,50.07,13.25-7.37,22.1-7.36,36.26.24,3.78-3.73,7.54-7.45,11.37-11.23-5.17-7.57-6.62-15.92-5.34-25.09-5.54-1.89-10.8-3.69-16.16-5.53-5.65,13.92-18.05,23.33-31.85,20.86-13.21-2.18-23.35-12.48-24.43-24.82-1.3-14.74,6.23-26.06,20.54-30.97,1.06-.36,2.15-.87,2.99-1.6,4.24-3.67,8.39-7.42,12.67-11.23-2.53-2.53-5.78-5.78-9.15-9.16ZM226.71,27.31v52.52h19.06V27.31h-19.06ZM88.11,64c-18.93,8.26-12.1,35.19,7.58,35.1,8.52-.19,15.79-6.27,17.18-14.68-11.22-3.1-21.98-7.06-24.76-20.41ZM216.09,36.69h-8.27v43.1h8.27v-43.1ZM64.72,23.39c7.24,4.64,15.35,4.54,21.01.3-3.38-3.65-6.82-7.35-9.64-10.39-3.91,3.47-7.62,6.75-11.38,10.09ZM28.53,60.34c3.21,3.33,6.8,7.05,10.45,10.84,3.26-6.98,3.56-13.97-.26-20.84-3.81,3.74-7.34,7.21-10.2,10.01ZM126.17,137.48c-7.53-4.12-14.65-4.21-21.5-.32,3.56,3.82,7.02,7.54,10.37,11.14,3.77-3.66,7.31-7.11,11.13-10.82ZM151.46,110.26c2.17-1.43,4.01-2.65,6.16-4.07-3.14-1.6-5.5-2.8-8.96-4.56,1.27,3.9,2.15,6.61,2.8,8.63Z"/>
      <path class="cls-1" d="M59.78,230.52c-3.9,11.77-13.24,4.62-19.27,7.77q-1.98,8.8-11.76,8.81c-7.17,0-14.34.05-21.5-.02-5.52-.05-7.22-1.72-7.23-7.1-.03-19.67-.03-39.33,0-59,0-5.76,1.25-6.99,7.1-7.01,13.17-.05,26.34-.11,39.51.05,3.13.04,5.16-.86,7.17-3.34,16.16-19.98,40.96-21,59.25-2.68,1.34,1.34,3.2,2.35,5,2.98,10.82,3.79,21.67,7.5,32.57,11.07,6.6,2.16,11.84,5.78,15.42,11.91.65,1.12,3.25,2.02,4.6,1.67,11.1-2.87,22.09-6.13,33.16-9.12,29.18-7.96,39.2,29.94,10.87,39.47-24.24,8.73-48.65,16.98-72.69,26.22-14.58,5.6-28.2,5.06-41.79-2.22-13.35-7-25.93-14.8-40.41-19.45ZM58.89,221.08c9.9.5,17.93,4.77,25.84,9.44,21.27,12.35,35.63,20.72,60.55,9.93,21.05-9,43.07-15.72,64.64-23.52,2.47-.89,4.93-2.08,7.04-3.62,4.33-3.15,5.56-7.94,3.55-12.34-2.01-4.4-6.37-6.58-11.69-5.19-12.86,3.35-25.68,6.88-38.44,10.6-1.53.45-3.02,2.35-3.75,3.94-4.53,9.74-14.05,14.28-24.36,11.33-14.45-4.46-28.85-9.07-43.26-13.65-3.11-1-5.51-2.82-4.39-6.58,1.13-3.76,4.12-3.88,7.31-3.12,10.01,3.05,19.94,6.39,29.93,9.53,7.92,2.17,20.28,9.27,25.14-.85,3.61-7.48-2.97-13.64-10.13-15.6-11-3.79-22.1-7.3-33.01-11.31-3.1-1.14-6.19-3.17-8.45-5.58-13.02-13.87-35.79-11.66-45.42,4.67-.64,1.08-1.02,2.48-1.02,3.74-.07,12.49-.05,24.98-.05,38.17ZM29.53,184.32H10.39v52.31h19.15v-52.31ZM40.21,184.23v42.92h8.14v-42.92h-8.14Z"/>
    </g>
  </g>
</svg>