<?xml version="1.0" encoding="UTF-8"?>
<svg id="Capa_2" data-name="Capa 2" xmlns="http://www.w3.org/2000/svg" viewBox="0 0 238.76 240.22">
  <defs>
    <style>
      .cls-1 {
        fill: #eaddcc;
      }
    </style>
  </defs>
  <g id="Capa_1-2" data-name="Capa 1">
    <g>
      <path class="cls-1" d="M0,240.22l16.55-61.52C-32.29,91.3,38.73-13.14,138.35,1.36c46.19,6.72,86.28,43.75,96.96,89.04,23.93,101.46-81.4,181.76-172.82,133.23L0,240.22ZM28.99,211.22l36.45-8.96c53.8,33.85,125.97,10.38,147.29-49.79C241.46,71.41,160.85-5.27,81.32,28.05,23.13,52.43,3.92,123.42,37.98,175.82l-8.98,35.4Z"/>
      <path class="cls-1" d="M74.7,64.43c2.6-.59,10.87-.73,12.87.71,1.38,1,12.32,26.54,12.39,28.68.19,5.52-9.92,12.75-9.9,16.9,5.54,11.24,15.82,22.82,26.21,29.72,3.2,2.13,14.21,8.28,17.49,8.62,5.43.56,12.11-15.55,16.69-15.79,1.7-.09,25.51,10.83,27.52,12.48,6.31,5.19-.74,18.52-5.96,22.98-25.1,21.42-69.57-8.71-87.52-28.5-16.3-17.96-36.94-47.31-17-70.03,1.68-1.91,4.74-5.22,7.22-5.78Z"/>
    </g>
  </g>
</svg>